<svg xmlns="http://www.w3.org/2000/svg" width="54" height="59.094" viewBox="0 0 54 59.094">
  <metadata><?xpacket begin="﻿" id="W5M0MpCehiHzreSzNTczkc9d"?>
<x:xmpmeta xmlns:x="adobe:ns:meta/" x:xmptk="Adobe XMP Core 5.6-c142 79.160924, 2017/07/13-01:06:39        ">
   <rdf:RDF xmlns:rdf="http://www.w3.org/1999/02/22-rdf-syntax-ns#">
      <rdf:Description rdf:about=""/>
   </rdf:RDF>
</x:xmpmeta>
                                                                                                    
                                                                                                                           
<?xpacket end="w"?></metadata>
<defs>
    <style>
      .cls-1 {
        fill: #cbcbcb;
        fill-rule: evenodd;
      }
    </style>
  </defs>
  <path id="quote_arrow_right" data-name="quote arrow right" class="cls-1" d="M2137.63,720.3l3,2.4,22.5-27.3a4.533,4.533,0,0,0,.75-2.4,4.042,4.042,0,0,0-.75-2.25l-22.5-27.148-3,2.55,11.85,24.448a4.75,4.75,0,0,1,.6,2.4,5.883,5.883,0,0,1-.6,2.7Zm-27.75,0,3,2.4,22.5-27.3a4.533,4.533,0,0,0,.75-2.4,4.042,4.042,0,0,0-.75-2.25l-22.5-27.148-3,2.55,11.85,24.448a4.75,4.75,0,0,1,.6,2.4,5.883,5.883,0,0,1-.6,2.7Z" transform="translate(-2109.88 -663.594)"/>
</svg>
