<svg xmlns="http://www.w3.org/2000/svg" width="54" height="59.094" viewBox="0 0 54 59.094">
  <metadata><?xpacket begin="﻿" id="W5M0MpCehiHzreSzNTczkc9d"?>
<x:xmpmeta xmlns:x="adobe:ns:meta/" x:xmptk="Adobe XMP Core 5.6-c142 79.160924, 2017/07/13-01:06:39        ">
   <rdf:RDF xmlns:rdf="http://www.w3.org/1999/02/22-rdf-syntax-ns#">
      <rdf:Description rdf:about=""/>
   </rdf:RDF>
</x:xmpmeta>
                                                                                                    
                                                                                                    
                                                                                                    
                                                                                                    
                                                                                                    
                                                                                                    
                                                                                                    
                                                                                                    
                                                                                                    
                                                                                                    
                                                                                                    
                                                                                                    
                                                                                                    
                                                                                                    
                                                                                                    
                                                                                                    
                                                                                                    
                                                                                                    
                                                                                                    
                                                            
<?xpacket end="w"?></metadata>
<defs>
    <style>
      .cls-1 {
        fill: #ff3934;
        fill-rule: evenodd;
      }
    </style>
  </defs>
  <path id="quote_arrow_left_hover" data-name="quote arrow left hover" class="cls-1" d="M2018.12,806.4l22.5,27.3,3-2.4-11.85-24.6a5.883,5.883,0,0,1-.6-2.7,4.75,4.75,0,0,1,.6-2.4l11.85-24.448-3-2.55-22.5,27.148a3.156,3.156,0,0,0-.75,2.25A3.529,3.529,0,0,0,2018.12,806.4Zm-27.75,0,22.5,27.3,3-2.4-11.85-24.6a5.883,5.883,0,0,1-.6-2.7,4.75,4.75,0,0,1,.6-2.4l11.85-24.448-3-2.55-22.5,27.148a3.156,3.156,0,0,0-.75,2.25A3.529,3.529,0,0,0,1990.37,806.4Z" transform="translate(-1989.63 -774.594)"/>
</svg>
